# xmcd
#
# Track frame offsets: 
#        150
#        11169
#        23813
#        36171
#        47981
#        66026
#        75917
#        87675
#        98709
#        115693
#        128491
#
# Disc length: 1865 seconds
#
# Revision: 0
# Processed by: cddbd v1.5.1PL0 Copyright (c) Steve Scherf et al.
# Submitted via: ExactAudioCopy v0.90b4
#
DISCID=8207470b
DTITLE=Wayne Landes - Wide Open Praises
DYEAR=2000
DGENRE=Country
TTITLE0=Search Me, Oh God
TTITLE1=When I Am Afraid
TTITLE2=I Love Your Grace
TTITLE3=Lord Let Our Light Shine
TTITLE4=All Is Right
TTITLE5=Magnify The Lord
TTITLE6=Blessed Is The Man
TTITLE7=Trust In The Lord
TTITLE8=Alone
TTITLE9=The Harvest Has Plenty
TTITLE10=Its Time
EXTD=
EXTT0=
EXTT1=
EXTT2=
EXTT3=
EXTT4=
EXTT5=
EXTT6=
EXTT7=
EXTT8=
EXTT9=
EXTT10=
PLAYORDER=
